<?xml version="1.0" encoding="UTF-8" standalone="no"?>
<svg
   xmlns:osb="http://www.openswatchbook.org/uri/2009/osb"
   xmlns:dc="http://purl.org/dc/elements/1.1/"
   xmlns:cc="http://creativecommons.org/ns#"
   xmlns:rdf="http://www.w3.org/1999/02/22-rdf-syntax-ns#"
   xmlns:svg="http://www.w3.org/2000/svg"
   xmlns="http://www.w3.org/2000/svg"
   version="1.1"
   id="svg6803"
   viewBox="0 0 2749.3767 415.60473"
   height="104px"
   width="136px">
  <defs
     id="defs6805">
    <linearGradient
       osb:paint="solid"
       id="linearGradient6747">
      <stop
         id="stop6749"
         offset="0"
         style="stop-color:#00599c;stop-opacity:1;" />
    </linearGradient>
  </defs>
  <metadata
     id="metadata6808">
    <rdf:RDF>
      <cc:Work
         rdf:about="">
        <dc:format>image/svg+xml</dc:format>
        <dc:type
           rdf:resource="http://purl.org/dc/dcmitype/StillImage" />
        <dc:title></dc:title>
      </cc:Work>
    </rdf:RDF>
  </metadata>
  <g
     transform="translate(498.97393,-410.27412)"
     id="layer1">
    <g
       transform="translate(-212.64153,198.32927)"
       id="layer1-4">
      <ellipse
         cx="-91.428574"
         cy="435.21936"
         rx="177.14285"
         ry="168.57143"
         id="path5265"
         style="stroke:#e04517;stroke-width:33.20000076;stroke-linecap:round;stroke-linejoin:round;stroke-miterlimit:4;stroke-dasharray:none;stroke-dashoffset:0;stroke-opacity:0.99275363" />
      <path
         id="path6725"
         d="m -101.59308,578.75158 c -62.44295,-8.17628 -117.65413,-55.13651 -132.68908,-112.85956 -27.73512,-106.48235 71.40725,-204.78832 185.757421,-184.19028 57.7580404,10.40403 111.33865,59.78849 123.86928,114.16848 4.39983,19.09422 3.68069,53.9949 -1.4742,71.54484 -17.44608,59.3955 -70.2237696,102.16781 -131.0635,111.0136 -14.46636,2.10333 -29.38853,2.28851 -44.399921,0.32292 z"
         style="stroke:#e14617;stroke-width:94.85714722;stroke-linecap:round;stroke-linejoin:round;stroke-miterlimit:4;stroke-dasharray:none;stroke-dashoffset:0;stroke-opacity:0.99275363" />
      <path
         id="path6727"
         d="m -127.37485,531.5596 c -18.13707,-5.81197 -42.07388,-23.30072 -54.88727,-40.10186 -14.07162,-18.45094 -20.43731,-39.93229 -18.60345,-62.77834 1.8627,-23.2052 10.13795,-41.01995 27.66115,-59.54814 32.67554,-34.54958 84.348211,-45.33505 126.944851,-26.49679 19.95422,8.8247 45.69534043,32.73298 55.6869904,51.72191 6.4973796,12.34814 7.5235396,17.78824 7.5462696,40.00583 0.022,21.53268 -1.11226,28.0374 -6.9751696,40 -9.43887997,19.25894 -32.1591604,41.38482 -52.9032904,51.51924 -14.6361,7.15037 -20.90069,8.43448 -44.28571,9.07763 -17.888301,0.49197 -31.682061,-0.67494 -40.184371,-3.39948 z"
         style="stroke:#e04517;stroke-width:94.85714722;stroke-linecap:round;stroke-linejoin:round;stroke-miterlimit:4;stroke-dasharray:none;stroke-dashoffset:0;stroke-opacity:0.99275363" />
      <path
         id="path6729"
         d="m -97.285709,479.40273 c -18.675811,-4.70458 -41.523361,-32.05262 -41.365821,-49.51401 0.18722,-20.75168 22.05926,-44.88805 46.686131,-51.51938 22.31078,-6.00767 51.00031,4.50279 66.01144,24.18341 5.99129,7.85498 7.23968,12.61971 7.23968,27.63173 l 0,18.14004 -15.17313,14.69633 c -9.43981,9.14318 -18.75135,15.41198 -24.64285,16.59028 -10.53068,2.10613 -29.98266,2.00154 -38.75545,-0.2084 z"
         style="stroke:#e8400c;stroke-width:94.85700226;stroke-linecap:round;stroke-linejoin:round;stroke-miterlimit:4;stroke-dasharray:none;stroke-dashoffset:0;stroke-opacity:0.99275363" />
      <path
         id="path6731"
         d="m -96.571429,439.61284 c 1.96429,-0.79261 5.17857,-0.79261 7.14286,0 1.96428,0.7926 0.35714,1.4411 -3.57143,1.4411 -3.92857,0 -5.53572,-0.6485 -3.57143,-1.4411 z"
         style="stroke:#e04517;stroke-width:94.85714722;stroke-linecap:round;stroke-linejoin:round;stroke-miterlimit:4;stroke-dasharray:none;stroke-dashoffset:0;stroke-opacity:0.99275363" />
      <path
         id="path6735"
         d="m -14.285709,232.36221 -191.428581,297.14286 314.28572,2.85714"
         style="fill:none;fill-rule:evenodd;stroke:#ffffff;stroke-width:75.40000153;stroke-linecap:butt;stroke-linejoin:miter;stroke-miterlimit:4;stroke-dasharray:none;stroke-opacity:1" />
      <text
         transform="scale(1.0758457,0.92950133)"
         id="text6737"
         y="597.33032"
         x="131.99216"
         style="font-style:italic;font-variant:normal;font-weight:bold;font-stretch:normal;font-size:262.5px;line-height:125%;font-family:Calibri;-inkscape-font-specification:'Calibri, Bold Italic';text-align:start;letter-spacing:0px;word-spacing:0px;writing-mode:lr-tb;text-anchor:start;fill:#00599c;fill-opacity:1;stroke:none;stroke-width:1px;stroke-linecap:butt;stroke-linejoin:miter;stroke-opacity:1"
         xml:space="preserve"><tspan
           style="font-style:italic;font-variant:normal;font-weight:bold;font-stretch:normal;font-size:262.5px;line-height:125%;font-family:Calibri;-inkscape-font-specification:'Calibri, Bold Italic';text-align:start;writing-mode:lr-tb;text-anchor:start"
           y="597.33032"
           x="131.99216"
           id="tspan6739">LITHONIA</tspan></text>
      <text
         transform="scale(1.0673603,0.93689076)"
         id="text6741"
         y="589.56946"
         x="1214.5735"
         style="font-style:italic;font-variant:normal;font-weight:bold;font-stretch:normal;font-size:262.5px;line-height:125%;font-family:Calibri;-inkscape-font-specification:'Calibri, Bold Italic';text-align:start;letter-spacing:0px;word-spacing:0px;writing-mode:lr-tb;text-anchor:start;fill:#00599c;fill-opacity:1;stroke:none;stroke-width:1px;stroke-linecap:butt;stroke-linejoin:miter;stroke-opacity:1"
         xml:space="preserve"><tspan
           style="font-style:italic;font-variant:normal;font-weight:bold;font-stretch:normal;font-size:262.5px;line-height:125%;font-family:Calibri;-inkscape-font-specification:'Calibri, Bold Italic';text-align:start;writing-mode:lr-tb;text-anchor:start"
           y="589.56946"
           x="1214.5735"
           id="tspan6743">LIGHTING</tspan></text>
      <text
         id="text6799"
         y="415.21933"
         x="2428.5715"
         style="font-style:normal;font-weight:normal;font-size:40px;line-height:125%;font-family:sans-serif;letter-spacing:0px;word-spacing:0px;fill:#00599c;fill-opacity:1;stroke:none;stroke-width:1px;stroke-linecap:butt;stroke-linejoin:miter;stroke-opacity:1"
         xml:space="preserve"><tspan
           y="415.21933"
           x="2428.5715"
           id="tspan6801">®</tspan></text>
    </g>
  </g>
</svg>
